<?xml version="1.0" encoding="UTF-8" standalone="no"?>
<!DOCTYPE svg PUBLIC "-//W3C//DTD SVG 1.1//EN" "http://www.w3.org/Graphics/SVG/1.1/DTD/svg11.dtd">
<svg width="100%" height="100%" viewBox="0 0 512 512" version="1.1" xmlns="http://www.w3.org/2000/svg" xmlns:xlink="http://www.w3.org/1999/xlink" xml:space="preserve" xmlns:serif="http://www.serif.com/" style="fill-rule:evenodd;clip-rule:evenodd;stroke-linejoin:round;stroke-miterlimit:2;">
    <g>
        <path d="M254,162.41C242.967,162.58 202.393,134.96 196.635,154.54C186.761,188.118 179.961,220.87 179.498,241.7C179.132,247.134 179.07,257.886 182.939,261.469C183.293,261.513 184.981,261.446 187.975,259.949C206.12,250.876 231,247 256,247C281,247 305.879,250.876 324.025,259.95C327.019,261.446 328.707,261.513 329.061,261.469C332.221,257.179 332.564,245.937 332.502,241.699C332.039,220.869 325.241,188.117 315.365,154.539C312.547,144.957 263.987,162.257 254,162.41ZM59.141,132.908C57.561,149.845 61.056,172.921 81.241,197.967C88.594,195.914 94.975,192.882 100.09,189.162C104.776,197.1 111.837,205.784 113.232,215.164C115.715,236.156 96.996,265.524 80.302,293.57C71.956,307.593 64.302,321.305 61.35,335.242C58.398,349.179 61.649,364.532 74.275,374.943C84.493,383.368 98.043,382.721 110.068,378.763C122.093,374.807 134.018,367.561 144.957,359.734C152.017,354.684 158.647,349.354 164.41,344.441C166.563,345.053 168.837,345.701 170.928,346.293C154.636,366.079 142.198,386.416 129.486,402.859C114.368,422.416 99.699,436.014 77.617,439.877C63.302,442.381 39.582,433.678 18,421.973L18,442.607C38.471,453.236 60.631,461.121 80.719,457.607C108.685,452.716 127.568,434.77 143.727,413.867C158.821,394.342 172.294,371.851 190.029,351.596C191.875,352.094 193.683,352.576 195.451,353.041C193.811,361.066 191.567,371.305 188.693,382.516C182.293,407.489 172.493,436.759 162.076,451.471C152.87,464.473 134.68,480.039 115.7,494L145.333,494C157.806,483.708 169.018,472.817 176.769,461.871C190.316,442.739 199.519,412.779 206.129,386.984C208.999,375.787 211.257,365.537 212.937,357.365C217.4,358.384 221.65,359.276 225.7,360.02C224.057,384.437 219.864,438.155 213.179,466.445C211.335,474.249 208.361,483.84 204.894,494L223.952,494C226.677,485.611 229.038,477.604 230.696,470.586C237.973,439.796 242.02,387.523 243.634,362.482C247.957,362.853 252.187,363.046 256.411,363.033C258.361,406.796 259.154,450.775 261.55,494L279.577,494C277.481,450.05 275.884,405.905 274.382,361.861C278.055,361.409 281.822,360.837 285.762,360.123C286.142,365.652 286.604,371.853 287.259,378.922C289.077,398.534 291.896,421.71 296.897,438.002C301.973,454.536 310.755,474.318 320.546,494L340.749,494C329.541,472.002 319.273,449.556 314.105,432.719C310.005,419.362 306.955,396.386 305.183,377.259C304.542,370.288 303.996,363.309 303.546,356.324C306.976,355.498 310.399,354.641 313.813,353.752C316.87,363.572 322.039,379.092 329.015,395.952C340.648,424.065 356.331,455.887 378.899,471.414C401.067,486.666 435.667,489.854 465.458,490.652C475.878,490.932 485.622,490.799 494.001,490.52L494.001,472.514C485.821,472.795 476.201,472.934 465.941,472.658C437.421,471.894 404.357,467.082 389.103,456.586C373.447,445.815 356.794,416.009 345.647,389.07C339.064,373.159 334.159,358.498 331.202,349.047C333.165,348.502 335.532,347.822 337.562,347.254C342.203,356.48 349.282,369.641 357.902,382.463C365.589,393.9 374.358,405.04 384.37,412.903C394.382,420.764 407.415,425.746 419.702,420.203C426.692,417.05 432.181,412.119 435.368,406.109C438.555,400.099 439.446,393.437 439.124,386.842C438.48,373.652 433.366,359.912 427.782,345.678C422.198,331.444 415.986,316.823 412.356,303.538C408.726,290.251 407.914,278.695 411.206,270.232C420.986,254.34 434.638,241.199 447.751,231.506C453.088,235.737 459.995,239.168 468.069,241.422C488.254,216.377 491.748,193.3 490.169,176.363C465.633,184.093 448.001,202.797 435.577,218.129C419.461,230.406 401.446,245.674 394.431,263.705C388.923,277.862 390.887,293.252 394.993,308.281C399.099,323.311 405.582,338.378 411.024,352.251C416.467,366.126 420.714,378.913 421.144,387.719C421.358,392.121 420.714,395.323 419.466,397.676C412.518,408.133 402.216,403.939 395.487,398.746C388.09,392.938 379.955,383.006 372.841,372.422C358.613,351.254 348.202,327.857 348.202,327.857L347.929,327.979L339.222,310.566C333.255,319.258 323.253,325 312,325C293.881,325 279,310.119 279,292C279,282.547 283.055,273.98 289.502,267.943C279.092,266.037 267.532,265 256,265C246.916,265 237.822,265.652 229.28,266.857C236.43,272.928 241,281.965 241,292C241,310.119 226.119,325 208,325C193.579,325 181.218,315.57 176.77,302.586C168.534,320.936 147.306,335.81 134.482,345.096C124.375,352.327 113.489,358.686 104.442,361.664C95.393,364.641 89.607,364.258 85.725,361.057C77.832,354.549 76.875,348.81 78.959,338.973C81.042,329.136 87.665,316.393 95.771,302.775C111.984,275.539 134.871,244.879 131.107,213.051C129.823,202.188 123.649,192.199 118.123,183.705C104.437,162.767 81.333,138.8 59.141,132.908ZM208,277C199.61,277 193,283.61 193,292C193,300.39 199.61,307 208,307C216.39,307 223,300.39 223,292C223,283.61 216.39,277 208,277ZM312,277C303.61,277 297,283.61 297,292C297,300.39 303.61,307 312,307C320.39,307 327,300.39 327,292C327,283.61 320.39,277 312,277Z" style="fill:white;fill-rule:nonzero;"/>
    </g>
    <g transform="matrix(0.61718,-0.165373,0.165373,0.61718,52.2414,-12.3259)">
        <path d="M239.125,97.438C231.04,97.701 224.127,100.924 217,106.5C206.864,114.43 197.178,127.653 188.094,142.97C176.034,163.303 165.392,186.957 152.906,206.656L154.062,207.376C153.644,208.056 153.679,207.996 153.812,208.75C153.946,209.504 154.579,211.104 156.219,213.25C159.496,217.543 166.561,223.46 176.155,229.406C195.343,241.296 224.445,253.896 254.968,264.312C285.488,274.73 317.568,283.056 342.842,286.937C355.479,288.877 366.442,289.69 374.248,289.25C381.078,288.865 384.818,286.876 385.342,286.78C387.655,274.04 390.462,260.507 392.779,246.75C398.099,215.18 400.097,183.65 392.093,167.562C384.613,152.524 374.476,146.872 363.063,145.187C356.051,144.153 348.526,145.119 341.436,147.157C350.219,152.617 359.613,156.833 370.03,158.781L366.594,177.157C336.894,171.603 315.344,152.617 297.25,135.157C279.157,117.697 263.82,102.145 250.094,98.72C246.78,97.892 243.684,97.484 240.75,97.438C240.2,97.428 239.664,97.42 239.125,97.438ZM51.72,172.156C48.155,172.233 44.977,172.643 42.188,173.376C31.03,176.302 24.481,182.796 20.906,200.719C15.308,228.785 23.221,253.017 40.844,275.593C58.466,298.169 86.087,318.423 118.469,335.53C180.716,368.417 260.039,389.583 317.624,398.72L325.218,380.656L329.56,370.376L338.904,376.438L393.154,411.5C425.53,413.815 453.304,409.672 470.934,400.937C479.954,396.469 486.23,390.961 489.874,384.875C493.516,378.789 494.877,372.005 493.311,363.155C488.865,338.035 480.893,323.555 469.936,313.845C458.978,304.133 444.108,298.72 424.623,294.625C418.171,293.269 411.221,292.062 403.873,290.875C401.053,307.08 399.061,320.922 399.685,329.219C400.101,334.749 397.165,340.761 393.06,343.936C388.956,347.112 384.312,348.471 379.217,349.343C369.027,351.086 356.324,350.521 341.309,348.593C311.279,344.736 272.489,334.976 235.184,322.218C197.88,309.458 162.282,293.853 138.497,277.31C126.605,269.04 117.424,260.722 112.684,250.53C110.314,245.433 109.219,239.586 110.404,233.842C111.587,228.098 114.938,222.932 119.56,218.748C125.153,213.685 130.723,206.12 136.34,197.123C120.582,190.211 105.985,184.303 92.872,179.998C76.455,174.608 62.408,171.923 51.716,172.154L51.72,172.156ZM140.688,223.626C137.945,226.872 135.085,229.886 132.094,232.594C129.671,234.787 128.948,236.364 128.688,237.624C128.428,238.886 128.53,240.301 129.625,242.656C131.815,247.366 138.662,254.648 149.188,261.969C170.238,276.609 204.928,292.119 241.218,304.529C277.51,316.942 315.616,326.425 343.688,330.029C357.723,331.833 369.374,332.049 376.063,330.905C378.793,330.438 380.325,329.805 381.031,329.435C380.641,322.808 381.134,315.363 382.126,307.312C379.926,307.599 377.659,307.772 375.313,307.905C365.358,308.467 353.435,307.469 340.001,305.405C313.133,301.279 280.357,292.723 248.938,281.999C217.52,271.275 187.612,258.479 166.313,245.279C155.663,238.681 147.117,232.109 141.376,224.593C141.136,224.277 140.92,223.945 140.688,223.623L140.688,223.626Z" style="fill:white;fill-rule:nonzero;"/>
    </g>
</svg>
